# xmcd
#
# Track frame offsets:
# 150
# 6864
# 15460
# 26876
# 32060
# 44613
# 52667
# 61747
#
# Disc length: 1041 seconds
#
#
# Revision: 0
# Processed by: cddbd v1.5.1PL0 Copyright (c) Steve Scherf et al.
# Submitted via: FreeRIP 2.93 
#
DISCID=59040f08
DTITLE=Accelerators - No More Fuckin´ Drama
DYEAR=2005
DGENRE=Punk
TTITLE0=You Fuckin´ Suck
TTITLE1=Do You Wanna Be My Girl
TTITLE2=It´s Understood
TTITLE3=Fat Little Dumb Ugly Girl
TTITLE4=We Get Along Fine
TTITLE5=Danny Is Moving Out
TTITLE6=Punk Ass Retard
TTITLE7=Juicy Joe (the homosexual)
EXTD=--P1NKY---
EXTT0=
EXTT1=
EXTT2=
EXTT3=
EXTT4=
EXTT5=
EXTT6=
EXTT7=
PLAYORDER=
